<svg xmlns="http://www.w3.org/2000/svg" width="177" height="39" fill="none" xmlns:v="https://vecta.io/nano"><path d="M46.488 32.5V7.3h8.892c1.728 0 3.252.336 4.572 1.008s2.352 1.608 3.096 2.808c.744 1.176 1.116 2.544 1.116 4.104s-.396 2.94-1.188 4.14c-.768 1.2-1.836 2.148-3.204 2.844-1.368.672-2.916 1.008-4.644 1.008h-4.464V32.5h-4.176zm13.968 0l-5.904-10.224 3.24-2.232 7.38 12.456h-4.716zm-9.792-13.14h4.896c.816 0 1.536-.18 2.16-.54.648-.36 1.164-.852 1.548-1.476.408-.624.612-1.332.612-2.124 0-1.2-.432-2.184-1.296-2.952s-1.98-1.152-3.348-1.152h-4.572v8.244zm25.268 13.572c-1.752 0-3.312-.396-4.68-1.188-1.344-.816-2.412-1.932-3.204-3.348-.768-1.416-1.152-3.048-1.152-4.896s.396-3.48 1.188-4.896 1.872-2.52 3.24-3.312c1.392-.816 2.976-1.224 4.752-1.224 1.608 0 3.06.42 4.356 1.26 1.296.816 2.316 2.004 3.06 3.564.768 1.56 1.152 3.42 1.152 5.58H70.496l.54-.504c0 1.104.24 2.064.72 2.88a5 5 0 0 0 1.908 1.836c.792.432 1.668.648 2.628.648 1.104 0 2.016-.24 2.736-.72.72-.504 1.284-1.152 1.692-1.944l3.564 1.512c-.504.96-1.152 1.8-1.944 2.52-.768.72-1.692 1.272-2.772 1.656-1.056.384-2.268.576-3.636.576zM71.288 21.88l-.576-.504h10.152l-.54.504c0-.984-.216-1.788-.648-2.412-.432-.648-.984-1.128-1.656-1.44-.648-.336-1.332-.504-2.052-.504s-1.44.168-2.16.504c-.72.312-1.32.792-1.8 1.44-.48.624-.72 1.428-.72 2.412zM86.982 32.5v-18h3.78l.252 3.312V32.5h-4.032zm12.204 0v-9.216h4.032V32.5h-4.032zm0-9.216c0-1.44-.168-2.544-.504-3.312-.312-.792-.768-1.344-1.368-1.656-.576-.312-1.26-.468-2.052-.468-1.344-.024-2.388.42-3.132 1.332s-1.116 2.22-1.116 3.924h-1.512c0-1.896.276-3.516.828-4.86.552-1.368 1.344-2.4 2.376-3.096 1.032-.72 2.256-1.08 3.672-1.08 1.44 0 2.664.288 3.672.864 1.032.576 1.812 1.476 2.34 2.7.552 1.2.828 2.772.828 4.716v.936h-4.032zm15.646 9.648c-1.8 0-3.408-.396-4.824-1.188a8.78 8.78 0 0 1-3.276-3.348c-.792-1.416-1.188-3.048-1.188-4.896s.384-3.48 1.152-4.896a8.52 8.52 0 0 1 3.276-3.312c1.392-.816 2.988-1.224 4.788-1.224s3.396.408 4.788 1.224c1.392.792 2.472 1.896 3.24 3.312.792 1.416 1.188 3.048 1.188 4.896s-.384 3.48-1.152 4.896a8.52 8.52 0 0 1-3.24 3.348c-1.392.792-2.976 1.188-4.752 1.188zm0-3.708c.984 0 1.86-.24 2.628-.72a5.22 5.22 0 0 0 1.8-2.016c.432-.864.648-1.86.648-2.988s-.228-2.112-.684-2.952c-.432-.864-1.032-1.536-1.8-2.016-.768-.504-1.656-.756-2.664-.756s-1.896.24-2.664.72-1.368 1.152-1.8 2.016-.648 1.86-.648 2.988.216 2.124.648 2.988c.456.84 1.068 1.512 1.836 2.016.792.48 1.692.72 2.7.72zm17.016 3.276l7.02-18h4.176l-7.416 18h-3.78zm-.288 0l-7.452-18h4.14l7.056 18h-3.744zm23.742 0l-.18-3.384v-5.868c0-1.224-.132-2.244-.396-3.06-.24-.84-.648-1.476-1.224-1.908-.552-.456-1.296-.684-2.232-.684-.864 0-1.62.18-2.268.54s-1.2.924-1.656 1.692l-3.528-1.296c.384-.792.888-1.524 1.512-2.196.648-.696 1.452-1.248 2.412-1.656.984-.408 2.16-.612 3.528-.612 1.752 0 3.216.348 4.392 1.044 1.176.672 2.04 1.644 2.592 2.916.576 1.272.864 2.808.864 4.608l-.108 9.864h-3.708zm-5.184.432c-2.16 0-3.84-.48-5.04-1.44-1.176-.96-1.764-2.316-1.764-4.068 0-1.872.624-3.3 1.872-4.284 1.272-.984 3.036-1.476 5.292-1.476h4.824v3.096h-3.528c-1.608 0-2.736.228-3.384.684-.648.432-.972 1.056-.972 1.872a1.95 1.95 0 0 0 .828 1.656c.576.384 1.368.576 2.376.576.912 0 1.704-.204 2.376-.612s1.188-.948 1.548-1.62c.384-.672.576-1.428.576-2.268h1.188c0 2.448-.492 4.38-1.476 5.796-.984 1.392-2.556 2.088-4.716 2.088zm18.885 0c-1.2 0-2.304-.18-3.312-.54s-1.872-.864-2.592-1.512a6.94 6.94 0 0 1-1.656-2.34l3.492-1.548c.36.672.888 1.236 1.584 1.692a4.35 4.35 0 0 0 2.376.684c.936 0 1.68-.156 2.232-.468.576-.336.864-.792.864-1.368 0-.552-.216-.972-.648-1.26-.432-.312-1.044-.564-1.836-.756l-1.692-.468c-1.704-.432-3.036-1.116-3.996-2.052-.96-.96-1.44-2.052-1.44-3.276 0-1.8.576-3.192 1.728-4.176 1.176-.984 2.856-1.476 5.04-1.476 1.104 0 2.112.168 3.024.504.936.312 1.74.768 2.412 1.368.672.576 1.14 1.26 1.404 2.052l-3.348 1.512c-.24-.6-.696-1.056-1.368-1.368a4.92 4.92 0 0 0-2.232-.504c-.816 0-1.452.18-1.908.54-.456.336-.684.816-.684 1.44 0 .36.204.696.612 1.008.408.288.996.528 1.764.72l2.124.504c1.176.288 2.136.744 2.88 1.368.744.6 1.296 1.284 1.656 2.052.36.744.54 1.5.54 2.268 0 1.08-.312 2.028-.936 2.844-.6.816-1.428 1.452-2.484 1.908-1.056.432-2.256.648-3.6.648z" fill="#fff"/><path d="M32.212 37.964H6.788c-1.477-.006-2.892-.597-3.936-1.643a5.59 5.59 0 0 1-1.634-3.939V13.516a5.58 5.58 0 0 1 2.925-4.875L16.83 1.706a5.57 5.57 0 0 1 5.326 0L34.88 8.604a5.58 5.58 0 0 1 2.925 4.875v18.903c-.003 1.482-.594 2.901-1.643 3.948a5.59 5.59 0 0 1-3.951 1.634zM19.5 3.461a3.14 3.14 0 0 0-1.499.378l-12.724 6.91c-.494.273-.904.674-1.19 1.161s-.434 1.041-.431 1.605v18.866a3.14 3.14 0 0 0 .921 2.223c.59.589 1.389.921 2.223.921h25.411c.832-.003 1.628-.336 2.216-.925a3.14 3.14 0 0 0 .917-2.219V13.516c0-.567-.152-1.123-.442-1.61s-.705-.887-1.203-1.157l-12.7-6.898c-.459-.253-.975-.387-1.499-.39zm0 29.153a7.32 7.32 0 0 1-4.65-1.667c-1.31-1.078-2.203-2.579-2.529-4.244a1.22 1.22 0 0 1 1.219-1.402 1.22 1.22 0 0 1 1.219 1.012 4.88 4.88 0 0 0 1.698 2.785c.869.706 1.954 1.091 3.073 1.091a4.87 4.87 0 0 0 3.073-1.091c.868-.706 1.468-1.689 1.698-2.785a1.22 1.22 0 0 1 1.219-1.012 1.22 1.22 0 0 1 1.218 1.402 7.31 7.31 0 0 1-7.239 5.911z" fill="#ff1919"/></svg>